<?xml version="1.0" encoding="utf-8"?>
<!-- Generator: Adobe Illustrator 20.0.0, SVG Export Plug-In . SVG Version: 6.00 Build 0)  -->
<svg version="1.1" id="Layer_1" xmlns="http://www.w3.org/2000/svg" xmlns:xlink="http://www.w3.org/1999/xlink" x="0px" y="0px"
	 viewBox="0 0 512.6 202" style="enable-background:new 0 0 512.6 202;" xml:space="preserve">
<style type="text/css">
	.st0{fill:#ffffff;}
</style>
<g>
	<g>
		<path class="st0" d="M503,64.4H110.1V9.6c0-2.5-0.9-4.6-2.7-6.4c-1.8-1.8-4-2.7-6.4-2.7c-2.7,0-4.9,0.9-6.6,2.6L3.1,94.4
			c-1.7,1.7-2.6,3.9-2.6,6.6c0,2.5,0.9,4.6,2.6,6.3l91.1,91.4c2.3,1.9,4.6,2.9,6.9,2.9c2.5,0,4.6-0.9,6.4-2.7
			c1.8-1.8,2.7-3.9,2.7-6.4v-54.8H503c2.5,0,4.6-0.9,6.4-2.7c1.8-1.8,2.7-3.9,2.7-6.4V73.6c0-2.5-0.9-4.6-2.7-6.4
			C507.6,65.3,505.5,64.4,503,64.4z"/>
	</g>
</g>
</svg>
