<?xml version="1.0" encoding="utf-8"?>
<!-- Generator: Adobe Illustrator 20.0.0, SVG Export Plug-In . SVG Version: 6.00 Build 0)  -->
<svg version="1.1" id="Layer_1" xmlns="http://www.w3.org/2000/svg" xmlns:xlink="http://www.w3.org/1999/xlink" x="0px" y="0px"
	 viewBox="0 0 512.6 202" style="enable-background:new 0 0 512.6 202;" xml:space="preserve">
<style type="text/css">
	.st0{fill:#ffffff;}
</style>
<g>
	<g>
		<path class="st0" d="M10.1,138H403v54.8c0,2.5,0.9,4.6,2.7,6.4c1.8,1.8,4,2.7,6.4,2.7c2.7,0,4.9-0.9,6.6-2.6l91.4-91.4
			c1.7-1.7,2.6-3.9,2.6-6.6c0-2.7-0.9-4.9-2.6-6.6L419,3.8c-2.3-1.9-4.6-2.9-6.9-2.9c-2.7,0-4.9,0.9-6.6,2.6
			c-1.7,1.7-2.6,3.9-2.6,6.6v54.8H10.1c-2.5,0-4.6,0.9-6.4,2.7S1,71.6,1,74v54.8c0,2.5,0.9,4.6,2.7,6.4S7.7,138,10.1,138z"/>
	</g>
</g>
</svg>
